<svg xmlns="http://www.w3.org/2000/svg" xmlns:xlink="http://www.w3.org/1999/xlink" width="743px" height="293px" version="1.1"><defs/><g transform="translate(0.5,0.5)"><rect x="171" y="1" width="410" height="200" fill="#fff2cc" stroke="#000000" pointer-events="none"/><rect x="411" y="91" width="140" height="70" rx="11" ry="11" fill="#a2c4c9" stroke="#000000" pointer-events="none"/><g fill="#000000" font-family="Helvetica" text-anchor="middle" font-size="18px"><text x="481" y="122">Item</text><text x="481" y="144">Browser</text></g><rect x="201" y="221" width="140" height="70" rx="11" ry="11" fill="#a2c4c9" stroke="#000000" pointer-events="none"/><g fill="#000000" font-family="Helvetica" text-anchor="middle" font-size="18px"><text x="271" y="252">Payment</text><text x="271" y="274">Processing</text></g><rect x="201" y="91" width="140" height="70" rx="11" ry="11" fill="#a2c4c9" stroke="#000000" pointer-events="none"/><g fill="#000000" font-family="Helvetica" text-anchor="middle" font-size="18px"><text x="271" y="122">Shopping</text><text x="271" y="144">Cart</text></g><path d="M 405 126 L 347 126" fill="none" stroke="#000000" stroke-miterlimit="10" pointer-events="none"/><path d="M 410 126 L 403 130 L 405 126 L 403 123 Z" fill="#000000" stroke="#000000" stroke-miterlimit="10" pointer-events="none"/><path d="M 342 126 L 349 123 L 347 126 L 349 130 Z" fill="#000000" stroke="#000000" stroke-miterlimit="10" pointer-events="none"/><rect x="331" y="11" width="80" height="40" fill="none" stroke="none" pointer-events="none"/><g fill="#000000" font-family="Helvetica" text-anchor="middle" font-size="18px"><text x="371" y="38">Project Scope</text></g><path d="M 151 281 L 168 221 Q 171 211 181 211 L 351 211 Q 361 211 364 221 L 381 281" fill="none" stroke="#ff030b" stroke-miterlimit="10" stroke-dasharray="3 3" pointer-events="none"/><path d="M 271 167 L 271 215" fill="none" stroke="#080808" stroke-miterlimit="10" pointer-events="none"/><path d="M 271 162 L 275 169 L 271 167 L 268 169 Z" fill="#080808" stroke="#080808" stroke-miterlimit="10" pointer-events="none"/><path d="M 271 220 L 268 213 L 271 215 L 275 213 Z" fill="#080808" stroke="#080808" stroke-miterlimit="10" pointer-events="none"/><rect x="601" y="91" width="140" height="70" rx="11" ry="11" fill="#a2c4c9" stroke="#000000" pointer-events="none"/><g fill="#000000" font-family="Helvetica" text-anchor="middle" font-size="18px"><text x="671" y="122">Inventory</text><text x="671" y="144">System</text></g><rect x="1" y="91" width="140" height="70" rx="11" ry="11" fill="#a2c4c9" stroke="#000000" pointer-events="none"/><g fill="#000000" font-family="Helvetica" text-anchor="middle" font-size="18px"><text x="71" y="111">Invoice </text><text x="71" y="133">&amp;</text><text x="71" y="155">Shipping</text></g><path d="M 147 126 L 195 126" fill="none" stroke="#080808" stroke-miterlimit="10" pointer-events="none"/><path d="M 142 126 L 149 123 L 147 126 L 149 130 Z" fill="#080808" stroke="#080808" stroke-miterlimit="10" pointer-events="none"/><path d="M 200 126 L 193 130 L 195 126 L 193 123 Z" fill="#080808" stroke="#080808" stroke-miterlimit="10" pointer-events="none"/><path d="M 306 85 L 306 61 L 636 61 L 636 85" fill="none" stroke="#080808" stroke-miterlimit="10" pointer-events="none"/><path d="M 306 90 L 303 83 L 306 85 L 310 83 Z" fill="#080808" stroke="#080808" stroke-miterlimit="10" pointer-events="none"/><path d="M 636 90 L 633 83 L 636 85 L 640 83 Z" fill="#080808" stroke="#080808" stroke-miterlimit="10" pointer-events="none"/><path d="M 557 126 L 595 126" fill="none" stroke="#080808" stroke-miterlimit="10" pointer-events="none"/><path d="M 552 126 L 559 123 L 557 126 L 559 130 Z" fill="#080808" stroke="#080808" stroke-miterlimit="10" pointer-events="none"/><path d="M 600 126 L 593 130 L 595 126 L 593 123 Z" fill="#080808" stroke="#080808" stroke-miterlimit="10" pointer-events="none"/><path d="M 171 51 L 581 51" fill="none" stroke="#080808" stroke-miterlimit="10" pointer-events="none"/><rect x="431" y="221" width="260" height="30" fill="none" stroke="#080808" pointer-events="none"/><g fill="#000000" font-family="Helvetica" text-anchor="middle" font-size="18px"><text x="561" y="243">Key</text></g><rect x="431" y="251" width="260" height="40" fill="none" stroke="#080808" pointer-events="none"/><g fill="#000000" font-family="Helvetica" text-anchor="middle" font-size="18px"><text x="561" y="278">3rd Party Application</text></g><path d="M 467 271 L 467 271 L 431 271" fill="none" stroke="#ff030b" stroke-miterlimit="10" stroke-dasharray="3 3" pointer-events="none"/></g></svg>